# xmcd
#
# Track frame offsets:
#	182
#	13812
#	27717
#	42162
#	56020
#	68382
#	80250
#	94070
#	107232
#	120347
#	137617
#	148515
#	159827
#	174257
#	186625
#	203547
#
# Disc length: 2871 seconds
#
# Revision: 0
# Processed by: cddbd v1.4PL0 Copyright (c) Steve Scherf et al.
# Submitted via: dBpowerAMP V4.0
#
DISCID=cf0b3510
DTITLE=Aimable - Aimable
DYEAR=1995
DGENRE=Dance
TTITLE0=tabou
TTITLE1=amor amor
TTITLE2=rumba tambah
TTITLE3=deux silhouettes
TTITLE4=noche de tampico
TTITLE5=la cucaracha
TTITLE6=brazil
TTITLE7=la chanson d'orphée
TTITLE8=si vous m'aimiez autant
TTITLE9=la paloma
TTITLE10=chihuahua
TTITLE11=la bamba
TTITLE12=besame mucho
TTITLE13=noche de ronda
TTITLE14=maria elena
TTITLE15=cielito lindo
EXTD=
EXTT0=
EXTT1=
EXTT2=
EXTT3=
EXTT4=
EXTT5=
EXTT6=
EXTT7=
EXTT8=
EXTT9=
EXTT10=
EXTT11=
EXTT12=
EXTT13=
EXTT14=
EXTT15=
PLAYORDER=
